<?xml version="1.0" encoding="UTF-8"?>
<svg width="512px" height="512px" viewBox="0 0 512 512" version="1.1" xmlns="http://www.w3.org/2000/svg" xmlns:xlink="http://www.w3.org/1999/xlink">
    <!-- Generator: Sketch 50.2 (55047) - http://www.bohemiancoding.com/sketch -->
    <title>Group</title>
    <desc>Created with Sketch.</desc>
    <defs>
        <linearGradient x1="50%" y1="0%" x2="50%" y2="97.5027902%" id="linearGradient-1">
            <stop stop-color="#53D057" offset="0%"></stop>
            <stop stop-color="#5686DB" offset="100%"></stop>
        </linearGradient>
        <path d="M34.7799551,181.121499 L104.340321,181.121499 L139.120544,241.506952 L69.5612573,241.506952 L34.7798751,181.121499 L0,120.746969 L34.7802229,60.3731359 L69.5604458,120.746969 L104.340401,60.3738331 L173.901382,60.3738331 L243.461426,60.3733683 L278.241783,120.746969 L208.681471,120.746969 L173.901382,60.3738331 L243.461212,60.3738331 L208.680989,0 L139.120544,0 L125.208455,24.1495332 L139.12008,0 L69.5607936,0 L34.7794113,60.3738331 L69.5603788,120.747085 L62.6044011,132.821968 L69.5604458,120.747201 L104.340669,181.121034 L34.7807584,181.121034 Z M157.586064,209.447703 L173.901926,181.121034 L208.680989,241.506487 L139.121159,241.506487 L104.340669,181.121499 L173.901114,181.121499 L157.586064,209.447703 Z" id="path-2"></path>
        <linearGradient x1="50%" y1="0%" x2="50%" y2="100%" id="linearGradient-4">
            <stop stop-color="#33B64D" offset="0%"></stop>
            <stop stop-color="#30A7D8" offset="100%"></stop>
        </linearGradient>
        <linearGradient x1="50%" y1="0%" x2="50%" y2="100%" id="linearGradient-5">
            <stop stop-color="#33B36C" offset="0%"></stop>
            <stop stop-color="#208B5D" offset="100%"></stop>
        </linearGradient>
    </defs>
    <g id="vi" stroke="none" stroke-width="1" fill="none" fill-rule="evenodd">
        <g id="Artboard">
            <g id="Group">
                <circle id="Oval" fill="#FFFFFF" cx="256" cy="256" r="256"></circle>
                <g id="Logo-Copy-2" transform="translate(117.000000, 135.000000)">
                    <g id="Group-10">
                        <g id="Page-1">
                            <g id="Path-35">
                                <mask id="mask-3" fill="white">
                                    <use xlink:href="#path-2"></use>
                                </mask>
                                <use id="Mask" fill="url(#linearGradient-1)" xlink:href="#path-2"></use>
                                <path d="M-118.124461,76.2525404 C-106.772167,81.8291516 -36.848315,198.88006 56.5264827,165.709207 C149.90128,132.538353 135.376811,-81.4358082 329.831431,16.4554753 C524.286052,114.346759 154.174543,370.713725 154.174543,370.713725 L-174.698361,245.936652 C-174.698361,245.936652 -129.476756,70.6759291 -118.124461,76.2525404 Z" fill="url(#linearGradient-4)" mask="url(#mask-3)"></path>
                            </g>
                            <polygon id="Fill-12" fill="url(#linearGradient-5)" points="122.811536 155.899494 105.421425 125.711415 122.811536 95.5233369 157.591759 95.5233369 174.981871 125.711415 157.591759 155.899494"></polygon>
                        </g>
                    </g>
                </g>
            </g>
        </g>
    </g>
</svg>